HIERARCHY
ROOT pelvis
{
  OFFSET 0 100 0
  CHANNELS 6 Xposition Yposition Zposition Zrotation Xrotation Yrotation
  JOINT pelvis_right_femur
  {
    OFFSET -10.78128 -3.44521 -0.5502486
    CHANNELS 3 Zrotation Xrotation Yrotation
    JOINT right_femur_tibia
    {
      OFFSET -0.8047443 -44.0398 -0.1307829
      CHANNELS 3 Zrotation Xrotation Yrotation
      JOINT right_tibia_foot
      {
        OFFSET 3.006224 -47.83518 -5
        CHANNELS 3 Zrotation Xrotation Yrotation
        End Site
        {
          OFFSET 0 -5 15
        }
      }
    }
  }
  JOINT pelvis_left_femur
  {
    OFFSET 10.78128 -3.44521 -0.5502486
    CHANNELS 3 Zrotation Xrotation Yrotation
    JOINT left_femur_tibia
    {
      OFFSET 0.8047443 -44.0398 -0.1307829
      CHANNELS 3 Zrotation Xrotation Yrotation
      JOINT left_tibia_foot
      {
        OFFSET -4.370144 -48.10324 -4.275266
        CHANNELS 3 Zrotation Xrotation Yrotation
        End Site
        {
          OFFSET 0 -5 15
        }
      }
    }
  }
  JOINT pelvis_spine1
  {
    OFFSET 0 6.468898 -3.129235
    CHANNELS 3 Zrotation Xrotation Yrotation
    JOINT spine1
    {
      OFFSET 0 23.15396 4.99043
      CHANNELS 3 Zrotation Xrotation Yrotation
      JOINT spine2
      {
        OFFSET 0 20.79997 -5.064912
        CHANNELS 3 Zrotation Xrotation Yrotation
        JOINT neck
        {
          OFFSET 0 14.38658 9.616178
          CHANNELS 3 Zrotation Xrotation Yrotation
          End Site
          {
            OFFSET 0 20 0
          }
        }
      }
      JOINT right_manubrium
      {
        OFFSET -5.722621 16.35077 3.967754
        CHANNELS 3 Zrotation Xrotation Yrotation
        JOINT right_clavicle
        {
          OFFSET -13.16364 1.694482 -4.693211
          CHANNELS 3 Zrotation Xrotation Yrotation
          JOINT right_humerus
          {
            OFFSET -28.5034 -0.3100689 -2.792744
            CHANNELS 3 Zrotation Xrotation Yrotation
            JOINT right_radius
            {
              OFFSET -25.15693 0.02248979 -1.271978
              CHANNELS 3 Zrotation Xrotation Yrotation
              End Site
              {
                OFFSET -15 0 0
              }
            }
          }
        }
      }
      JOINT left_manubrium
      {
        OFFSET 5.722621 16.35077 3.967754
        CHANNELS 3 Zrotation Xrotation Yrotation
        JOINT left_clavicle
        {
          OFFSET 13.16364 1.694482 -4.693211
          CHANNELS 3 Zrotation Xrotation Yrotation
          JOINT left_humerus
          {
            OFFSET 29.39168 -1.063119 -2.237045
            CHANNELS 3 Zrotation Xrotation Yrotation
            JOINT left_radius
            {
              OFFSET 24.59957 -0.9528479 0.9047498
              CHANNELS 3 Zrotation Xrotation Yrotation
              End Site
              {
                OFFSET 15 -0 -0
              }
            }
          }
        }
      }
    }
  }
}
MOTION
Frames: 7
Frame Time: 0.0416666666667
-962.9797 105.5685 2657.503 -7.739053 -5.679414 -61.13619 -0.6526215 7.835435 -0.7678232 -0 50.17397 -0 -13.49136 15.19684 3.164123 -5.543011 -3.91637 -12.14025 -0 17.4178 -0 -0.390553 -10.60166 21.12039 2.998939 -3.329387 9.218091 0.1001385 18.21051 -8.318533 1.007832 17.42629 0.2115352 -0.4464471 -17.08063 2.427954 -3.974185 -32.08957 13.28393 93.40961 15.74977 -14.83213 -0 0 30.06253 -19.78827 17.74181 11.909 0.4885024 -24.49186 -9.194519 -90.17309 8.70472 35.70747 0 0 -20.77612 4.460117 13.22856 7.376816
-967.3812 106.7448 2660.771 -7.352538 -5.507514 -60.2534 -0.8872126 1.038371 -1.606295 -0 49.13212 -0 -13.92033 15.37596 2.804446 -5.646849 0.4856821 -12.27428 -0 15.67184 -0 -0.3227745 -12.51724 19.82902 3.265715 -3.39669 9.212871 -0.1028137 18.90764 -8.772635 0.9520167 17.30618 0.2185957 -0.1027107 -16.79166 2.0917 -3.957411 -31.49054 13.60028 94.60538 15.21921 -16.98885 -0 0 29.16523 -19.97165 17.63007 10.83917 0.9240137 -25.78179 -10.02962 -88.84872 7.939169 33.48002 0 0 -24.03207 5.213764 13.40344 5.949365
-971.5487 107.333 2663.779 -7.056207 -5.442891 -59.40445 -1.134334 -5.020184 -2.443145 -0 43.58256 -0 -13.22669 13.1127 1.599127 -5.522345 4.880888 -12.3845 -0 13.44957 -0 -1.416242 -14.90947 18.44015 3.52705 -3.505041 9.159434 -0.2840264 19.48407 -9.169147 0.9120136 17.23339 0.3464661 0.2324408 -16.70903 1.90181 -4.049742 -30.81262 13.85416 95.85448 14.66211 -19.15295 -0 0 27.90856 -20.29007 17.4321 9.913303 1.420489 -27.10641 -10.75651 -87.55804 7.216473 31.10736 0 0 -27.53242 6.052032 13.58989 4.536359
-975.6333 107.2307 2666.637 -6.807778 -5.537961 -58.72802 -1.2707 -9.855391 -3.188421 -0 35.46886 -0 -11.69483 9.481131 0.02872047 -5.414906 8.826047 -12.4687 -0 11.57666 -0 -2.782639 -17.26842 17.24292 3.736707 -3.645179 9.02421 -0.4166979 19.84071 -9.460043 0.8933117 17.25911 0.6265116 0.5418604 -16.88567 1.914347 -4.246068 -30.047 14.00494 97.06053 14.15039 -21.16613 -0 0 26.22458 -20.73304 17.09583 9.214276 1.961274 -28.36168 -11.29006 -86.4033 6.66467 28.68551 0 0 -30.96258 6.946946 13.7858 3.228797
-979.7603 106.5417 2669.462 -6.402543 -5.6151 -58.23502 -1.184269 -13.7731 -3.826006 -0 27.0534 -0 -9.92679 5.882578 -1.267402 -5.4687 11.87172 -12.3153 -0 10.45871 -0 -3.197932 -19.0206 16.42566 3.857005 -3.797926 8.790461 -0.4816947 19.92298 -9.62318 0.8981102 17.41246 1.045541 0.8081009 -17.30767 2.138689 -4.515914 -29.20772 14.03249 98.13016 13.74607 -22.89175 -0 0 24.16134 -21.23636 16.60366 8.766616 2.511795 -29.44288 -11.58277 -85.45354 6.392743 26.32835 0 0 -34.00332 7.841156 13.98623 2.112868
-984.033 105.4656 2672.353 -5.753648 -5.487373 -57.86582 -0.8689867 -17.25173 -4.397763 -0 19.73077 -0 -8.482759 3.52769 -1.938764 -5.675313 13.91089 -11.7645 -0 10.27789 -0 -2.260711 -19.96177 16.00143 3.874236 -3.938969 8.470979 -0.4768955 19.7471 -9.667418 0.9246388 17.68518 1.543872 1.016432 -17.89331 2.529151 -4.813826 -28.3418 13.94629 98.99646 13.47871 -24.24178 -0 0 21.9016 -21.70893 15.99058 8.537137 3.02465 -30.27169 -11.64378 -84.73329 6.443337 24.16237 0 0 -36.41545 8.656917 14.18371 1.250837
-988.5472 104.1992 2675.373 -4.969311 -5.118137 -57.56255 -0.3682531 -20.46818 -4.930753 -0 13.84326 -0 -7.610015 2.823361 -2.047787 -5.92204 15.19298 -10.8367 -0 11.18649 -0 -0.5421194 -20.22552 15.7665 3.801772 -4.046609 8.103742 -0.4178403 19.39254 -9.623118 0.9685434 18.03805 2.040683 1.157764 -18.531 3.005567 -5.097032 -27.51805 13.78066 99.63551 13.33918 -25.19019 -0 0 19.69512 -22.08045 15.33239 8.463819 3.453088 -30.81704 -11.53243 -84.23212 6.779328 22.30512 0 0 -38.08935 9.322323 14.37113 0.6667124
